<?xml version="1.0" encoding="UTF-8"?>
<svg version="1.1" xmlns="http://www.w3.org/2000/svg" width="333" height="365">
<path d="M0 0 C2.18652119 1.11859586 4.33195243 2.31897688 6.4453125 3.5703125 C7.36109573 4.10928665 7.36109573 4.10928665 8.29537964 4.65914917 C10.24262596 5.8077543 12.18368916 6.96639786 14.125 8.125 C15.4058856 8.88082622 16.68713272 9.63604013 17.96875 10.390625 C24.55225774 14.27899209 31.05995201 18.26350667 37.49365234 22.39648438 C41.37874851 24.88209821 45.31209216 27.28675794 49.25 29.6875 C50.00023437 30.14705078 50.75046875 30.60660156 51.5234375 31.08007812 C55.38152075 33.43592861 59.26157404 35.73648538 63.19433594 37.96508789 C66.82807248 40.04775544 70.41044707 42.21738842 74 44.375 C74.85142578 44.88595215 75.70285156 45.3969043 76.58007812 45.92333984 C84.57248618 50.72716428 92.53443886 55.58083154 100.484375 60.45458984 C101.86882812 61.30077881 101.86882812 61.30077881 103.28125 62.1640625 C104.50424805 62.91357178 104.50424805 62.91357178 105.75195312 63.67822266 C107.79868462 64.8816332 109.86242387 65.96855218 112 67 C112 67.66 112 68.32 112 69 C112.928125 69.28875 113.85625 69.5775 114.8125 69.875 C118 71 118 71 121 73 C121.0078125 75.21484375 121.0078125 75.21484375 120 78 C117.49334686 79.91091203 114.70994091 81.20428835 111.875 82.5625 C110.37187787 83.31276527 108.86926793 84.0640576 107.3671875 84.81640625 C106.63226074 85.17702148 105.89733398 85.53763672 105.14013672 85.90917969 C103.10388576 86.94704978 101.14989401 88.06806068 99.1875 89.23828125 C95.32082972 91.37537475 92.26815314 92.04725953 88 91 C86.1953125 89.96264648 86.1953125 89.96264648 84.25 88.55859375 C80.05546753 85.65964653 75.75877391 83.01805916 71.3671875 80.43359375 C70.68141632 80.02906982 69.99564514 79.6245459 69.28909302 79.20776367 C66.42991429 77.52352825 63.5680371 75.84391642 60.70556641 74.1652832 C58.59116583 72.92409701 56.47910854 71.67899288 54.3671875 70.43359375 C53.73158905 70.0626207 53.0959906 69.69164764 52.44113159 69.30943298 C48.6648921 67.08077397 45.09531653 64.67537634 41.54898071 62.09773254 C39.75061635 60.82326665 37.90429516 59.75039908 35.953125 58.7265625 C29.41262957 55.17894008 23.09892003 51.25087079 16.75 47.375 C14.86488453 46.22652965 12.97947476 45.07854352 11.09405518 43.93057251 C9.39394847 42.89506347 7.69451238 41.85845365 5.99511719 40.82177734 C5.00672852 40.22059082 4.01833984 39.6194043 3 39 C1.69144043 38.10788818 1.69144043 38.10788818 0.35644531 37.19775391 C-1.86501163 35.81004196 -1.86501163 35.81004196 -4.04052734 36.16430664 C-6.24563145 37.10475909 -8.27940078 38.1631926 -10.3515625 39.37109375 C-11.19428711 39.85827881 -12.03701172 40.34546387 -12.90527344 40.84741211 C-13.8027832 41.37214111 -14.70029297 41.89687012 -15.625 42.4375 C-17.51770298 43.5321603 -19.41094197 44.62589429 -21.3046875 45.71875 C-22.25698242 46.26917969 -23.20927734 46.81960937 -24.19042969 47.38671875 C-28.35447997 49.77775492 -32.54849966 52.11306508 -36.75 54.4375 C-37.8011499 55.01939087 -37.8011499 55.01939087 -38.87353516 55.61303711 C-39.88746338 56.17390015 -39.88746338 56.17390015 -40.921875 56.74609375 C-41.58558105 57.11323486 -42.24928711 57.48037598 -42.93310547 57.85864258 C-44.38416652 58.65993131 -45.83642161 59.45905972 -47.28955078 60.2565918 C-51.73018587 62.70327274 -56.08082656 65.23846297 -60.375 67.9375 C-65.1400608 70.89227789 -69.9572261 73.64745291 -74.8984375 76.29296875 C-80.39510323 79.31821173 -85.77967643 82.53681951 -91.1796875 85.73046875 C-91.83936523 86.12024902 -92.49904297 86.5100293 -93.17871094 86.91162109 C-94.75831719 87.85557346 -96.32211934 88.82587672 -97.8828125 89.80078125 C-100 91 -100 91 -102 91 C-102 111.13 -102 131.26 -102 152 C-101.34 152.33 -100.68 152.66 -100 153 C-93.27264535 150.42698786 -87.0222605 146.32951235 -80.859375 142.6484375 C-78 141 -78 141 -74.703125 139.4140625 C-71.89715865 138.282017 -71.89715865 138.282017 -71 136 C-70.88194823 134.4892243 -70.82303551 132.97361169 -70.79467773 131.45849609 C-70.7647599 130.04725967 -70.7647599 130.04725967 -70.73423767 128.60751343 C-70.71752518 127.58976837 -70.70081268 126.57202332 -70.68359375 125.5234375 C-70.66281265 124.48305328 -70.64203156 123.44266907 -70.62062073 122.37075806 C-70.55510128 119.03890751 -70.49622908 115.7069765 -70.4375 112.375 C-70.39431706 110.11978326 -70.35070285 107.86457473 -70.30664062 105.609375 C-70.19941748 100.07300236 -70.09765554 94.53654922 -70 89 C-69.34 89 -68.68 89 -68 89 C-68 89.66 -68 90.32 -68 91 C-66.73542969 91.12955078 -66.73542969 91.12955078 -65.4453125 91.26171875 C-61.45360912 92.11708376 -58.34976567 93.76499609 -54.875 95.8125 C-54.19050781 96.20630859 -53.50601563 96.60011719 -52.80078125 97.00585938 C-46.30551816 100.76474597 -39.88460911 104.65159251 -33.46264648 108.53393555 C-27.35132303 112.22014004 -21.1779665 115.77516101 -14.93554688 119.234375 C-12.21650743 120.74207518 -9.5891962 122.2738692 -7 124 C-2.26852006 124.73225285 0.35254329 122.85902667 4.25 120.3125 C8.01138033 117.89813983 11.75850523 115.5110845 15.6875 113.375 C18.69334256 111.736436 21.63719983 110.02850475 24.5625 108.25 C29.59976762 105.19948079 34.73161719 102.33421704 39.88037109 99.4777832 C43.22196326 97.61102711 46.51563628 95.70474523 49.7421875 93.64453125 C50.32508545 93.27312012 50.9079834 92.90170898 51.50854492 92.51904297 C53.08918439 91.50083258 54.66017572 90.46768916 56.23046875 89.43359375 C59.19832981 87.89733845 60.73527069 87.87428857 64 88 C64.00808685 88.55488098 64.01617371 89.10976196 64.02450562 89.68145752 C64.11056256 95.45665407 64.21006667 101.23150784 64.31738281 107.00634766 C64.35566602 109.16156253 64.39052004 111.31684116 64.421875 113.47216797 C64.4675395 116.57021876 64.52553212 119.66783091 64.5859375 122.765625 C64.59748871 123.72929993 64.60903992 124.69297485 64.62094116 125.68585205 C64.6507457 127.03679962 64.6507457 127.03679962 64.68115234 128.41503906 C64.70113785 129.60084564 64.70113785 129.60084564 64.7215271 130.81060791 C65.02982363 133.23447746 65.79371286 134.89107277 67 137 C68.02738281 136.41992188 69.05476562 135.83984375 70.11328125 135.2421875 C82.40835591 128.30711569 94.77738121 121.55937561 107.30151367 115.04541016 C112.30361893 112.43801429 117.23787149 109.75880145 122.10302734 106.90258789 C124 106 124 106 127 106 C127.0700345 123.28921276 127.12296084 140.57838135 127.15543652 157.86770344 C127.17091532 165.89516754 127.19202411 173.92254358 127.22631836 181.94995117 C127.2561898 188.94541853 127.27556763 195.94082212 127.28226548 202.93635148 C127.2861816 206.64156529 127.2954058 210.34659666 127.31719017 214.05175209 C127.34129353 218.18473073 127.34197145 222.3173908 127.34057617 226.45043945 C127.35675491 228.29973305 127.35675491 228.29973305 127.3732605 230.18638611 C127.36913651 231.30959259 127.36501251 232.43279907 127.36076355 233.59004211 C127.36352893 234.56806447 127.36629431 235.54608683 127.36914349 236.55374622 C126.93596429 239.42435423 126.26974388 240.25802388 124 242 C122.56914906 242.78171972 121.10618827 243.50595656 119.625 244.1875 C114.25800755 246.78115574 109.28389938 249.86061518 104.234375 253.01953125 C100.43991727 255.34294921 96.56217514 257.45911471 92.63671875 259.55078125 C89.09923276 261.49508836 85.69275929 263.6322052 82.2890625 265.80078125 C79.84775154 267.07976156 77.71376849 267.59245526 75 268 C75 268.66 75 269.32 75 270 C69.61518943 272.95548855 64.22153771 275.88525251 58.7746582 278.72509766 C51.47188006 282.55068589 44.43766962 286.72214641 37.42944336 291.06201172 C32.51292541 294.10007634 27.54109873 296.96060448 22.4375 299.67578125 C19.91139018 301.04813899 17.45648801 302.50691588 15 304 C11.41577093 306.16082709 7.82318314 308.30163853 4.1875 310.375 C3.31480469 310.87773437 2.44210938 311.38046875 1.54296875 311.8984375 C-1.19347639 313.08381005 -3.05166232 313.22231631 -6 313 C-6 312.34 -6 311.68 -6 311 C-6.721875 310.72414063 -7.44375 310.44828125 -8.1875 310.1640625 C-19.12463705 305.637303 -29.07904797 298.72730422 -39.06640625 292.44140625 C-50.31610727 285.34556229 -50.31610727 285.34556229 -62 279 C-62 278.34 -62 277.68 -62 277 C-62.9075 276.71125 -63.815 276.4225 -64.75 276.125 C-67.32202908 275.23468224 -69.61346766 274.28505587 -72 273 C-72 272.34 -72 271.68 -72 271 C-72.86979492 270.74259033 -73.73958984 270.48518066 -74.63574219 270.2199707 C-78.06883328 268.97503919 -80.75830408 267.44815472 -83.828125 265.48046875 C-88.89742151 262.27649078 -94.03081713 259.21903226 -99.234375 256.23828125 C-101.35618715 255.01124647 -103.47692657 253.78237128 -105.59765625 252.5534668 C-107.05101003 251.71551339 -108.50748458 250.88295285 -109.96679688 250.05541992 C-112.10673841 248.8397379 -114.23372901 247.60374657 -116.359375 246.36328125 C-117.34040192 245.81623283 -117.34040192 245.81623283 -118.34124756 245.25813293 C-121.30606043 243.50391956 -122.81361678 242.56476901 -123.91503906 239.22729492 C-123.94307617 238.4922876 -123.97111328 237.75728027 -124 237 C-121.66704007 235.66600985 -119.33367376 234.33274047 -117 233 C-116.3409668 232.62327148 -115.68193359 232.24654297 -115.00292969 231.85839844 C-112.96221811 230.69383501 -110.91883369 229.53407393 -108.875 228.375 C-108.18535156 227.98054687 -107.49570313 227.58609375 -106.78515625 227.1796875 C-97.32230572 221.82403978 -97.32230572 221.82403978 -94.2644043 222.23095703 C-91.11417031 223.30084782 -88.35960567 224.95130447 -85.51171875 226.640625 C-84.57958305 227.18671417 -84.57958305 227.18671417 -83.62861633 227.74383545 C-82.31520808 228.51481187 -81.00324017 229.28824655 -79.69262695 230.06396484 C-77.70821975 231.23774424 -75.71882033 232.40266135 -73.72851562 233.56640625 C-63.17474443 239.76486653 -63.17474443 239.76486653 -59.14453125 242.734375 C-56.05982664 244.95689509 -52.94900157 246.73570258 -49.61523438 248.54443359 C-44.06398937 251.63410151 -38.67307312 255.00445446 -33.25 258.3125 C-32.05217487 259.04116613 -30.8542586 259.76968244 -29.65625 260.49804688 C-29.06485229 260.85800751 -28.47345459 261.21796814 -27.86413574 261.58883667 C-26.67741193 262.31106246 -25.49032098 263.03268536 -24.30285645 263.75369263 C-21.31379465 265.57260384 -18.34057885 267.41183197 -15.38867188 269.29052734 C-14.80591492 269.65832809 -14.22315796 270.02612885 -13.6227417 270.40507507 C-12.02202729 271.41714625 -10.42636416 272.43719405 -8.83105469 273.45776367 C-6.09110972 274.95036736 -4.09430187 275.72617377 -1 276 C1.89675483 274.82924771 1.89675483 274.82924771 4.6875 273.0625 C9.8428246 270 9.8428246 270 12 270 C12 269.34 12 268.68 12 268 C12.6290625 267.69707031 13.258125 267.39414062 13.90625 267.08203125 C18.74799735 264.71220009 23.36720003 262.21629859 27.8984375 259.30078125 C30.24005624 257.851415 32.63472182 256.54982814 35.0625 255.25 C38.38713915 253.46910938 41.6492132 251.62409191 44.86328125 249.65234375 C45.5277124 249.24532227 46.19214355 248.83830078 46.87670898 248.41894531 C48.18361491 247.61356554 49.48670407 246.80195054 50.78540039 245.98339844 C54.1692003 243.89981113 57.02978903 242.46042371 61 242 C61 241.34 61 240.68 61 240 C70.82572556 234.60708618 70.82572556 234.60708618 75.75390625 232.03125 C76.71671509 231.52561523 76.71671509 231.52561523 77.69897461 231.00976562 C78.94113771 230.35853143 80.18530684 229.71110243 81.43188477 229.06835938 C82.61038124 228.44889122 83.77814135 227.80846341 84.93289185 227.14578247 C87 226 87 226 89.30635071 224.96200562 C92.01953454 223.54759123 93.92569976 222.26314122 96 220 C97.26415033 215.42652902 97.04980412 211.00362063 96.87890625 206.2890625 C96.86210105 204.95246685 96.84929887 203.61581541 96.84031677 202.27914429 C96.80609629 198.77594508 96.71783707 195.27615286 96.61798096 191.77429199 C96.52558782 188.195049 96.48474091 184.61525027 96.43945312 181.03515625 C96.34318915 174.02204561 96.18977454 167.0111867 96 160 C95.34 159.67 94.68 159.34 94 159 C91.63147343 160.09037029 89.39863967 161.2353354 87.125 162.5 C86.45895752 162.86222656 85.79291504 163.22445312 85.10668945 163.59765625 C79.76087248 166.52386814 74.50817946 169.59694413 69.29296875 172.75 C67 174 67 174 65 174 C65.00523682 174.91064209 65.01047363 175.82128418 65.01586914 176.75952148 C65.02223389 178.03384033 65.02859863 179.30815918 65.03515625 180.62109375 C65.03861557 181.3081691 65.04207489 181.99524445 65.04563904 182.70314026 C65.06137263 186.476203 65.06170129 190.24846836 65.03515625 194.02148438 C65.02740677 195.14896591 65.02740677 195.14896591 65.01950073 196.29922485 C65.0091218 197.80295099 64.99832 199.30667426 64.98709106 200.81039429 C64.9688605 204.77817413 65.06258096 208.69958123 65.33984375 212.66015625 C65.54956283 216.75186279 65.51209207 220.11311756 64 224 C60.09054615 227.92649136 55.06527209 230.07464659 50.01025391 232.15820312 C47.33572068 233.27816797 44.80662127 234.63544652 42.25 236 C39.38293767 237.44355586 37.18652552 238.20336862 34 239 C33.67 207.32 33.34 175.64 33 143 C29.01717997 143 28.15833247 143.20488659 24.9453125 145.125 C24.17276123 145.58148926 23.40020996 146.03797852 22.60424805 146.50830078 C21.78609619 147.00056152 20.96794434 147.49282227 20.125 148 C19.27655518 148.49097168 18.42811035 148.98194336 17.55395508 149.48779297 C13.62717485 151.76943557 9.80264922 154.08511332 6.12890625 156.7578125 C2.87078181 159.05793212 -0.1290632 160.86926699 -4 162 C-9.43602992 160.85426174 -13.49883125 158.08048372 -18 155 C-20.13528525 153.62350629 -22.28103035 152.26520937 -24.43212891 150.91357422 C-25.82767402 150.02852417 -27.21213674 149.12569424 -28.58349609 148.20361328 C-32.56711923 145.58534076 -34.03252879 145 -39 145 C-39.33 176.02 -39.66 207.04 -40 239 C-48.02629579 234.9868521 -55.66227046 230.41014283 -63.27734375 225.671875 C-65.84129947 224.04312679 -65.84129947 224.04312679 -68 223 C-68 222.34 -68 221.68 -68 221 C-68.66 221 -69.32 221 -70 221 C-70.33 205.82 -70.66 190.64 -71 175 C-76.5073033 177.30952836 -76.5073033 177.30952836 -81.69140625 180.015625 C-82.31885742 180.3760791 -82.94630859 180.7365332 -83.59277344 181.10791016 C-84.56778809 181.67324463 -84.56778809 181.67324463 -85.5625 182.25 C-90.72405193 185.20306101 -95.91082228 188.00578074 -101.25 190.625 C-106.71109086 193.30589915 -111.93734469 196.25350562 -117.16796875 199.35546875 C-128.61045131 206 -128.61045131 206 -133 206 C-133.37443154 188.83228505 -133.65622054 171.66585061 -133.82899475 154.49498177 C-133.91136585 146.52130465 -134.02356112 138.55016962 -134.20703125 130.578125 C-134.36694836 123.62615514 -134.46982781 116.676026 -134.50541592 109.72226799 C-134.52621267 106.04197844 -134.57472604 102.36695213 -134.69168091 98.68835831 C-135.37585379 76.33363657 -135.37585379 76.33363657 -131.40155029 70.757164 C-126.65645715 66.32292997 -120.59954333 63 -114 63 C-114 62.34 -114 61.68 -114 61 C-113.42894531 60.731875 -112.85789062 60.46375 -112.26953125 60.1875 C-105.99981822 57.15730483 -100.13524417 53.67197493 -94.234375 49.98046875 C-90.43991727 47.65705079 -86.56217514 45.54088529 -82.63671875 43.44921875 C-79.09923276 41.50491164 -75.69275929 39.3677948 -72.2890625 37.19921875 C-69.84775154 35.92023844 -67.71376849 35.40754474 -65 35 C-65 34.34 -65 33.68 -65 33 C-64.3709375 32.69707031 -63.741875 32.39414062 -63.09375 32.08203125 C-58.25906093 29.71565482 -53.64492288 27.225227 -49.12109375 24.3125 C-45.76108142 22.23337635 -42.2668539 20.40818165 -38.7890625 18.53515625 C-36.15103593 17.08313322 -33.57279987 15.56409897 -31 14 C-26.65531183 11.36018947 -22.22611735 8.92173688 -17.7421875 6.52734375 C-14.14555402 4.52409063 -10.71290221 2.28837455 -7.2890625 0.00390625 C-4.30187355 -1.30617491 -3.12765619 -0.89065156 0 0 Z " fill="#091152" transform="translate(169,26)"/>
</svg>
